# xmcd CD database file
#
# Track frame offsets:
#	150
#	8200
#	16168
#	27675
#	41150
#	53475
#	65485
#	79293
#	90308
#	106813
#	119015
#	136303
#	146150
#	157295
#	168925
#	180763
#
# Disc length: 2551 seconds
#
# Revision: 3
# Processed by: cddbd v1.5.1PL0 Copyright (c) Steve Scherf et al.
# Submitted via: Feurio! 1.68 - http://www.feurio.com
#
DISCID=d209f510
DTITLE=Various Artist - Country Festival Vol. 3
DYEAR=1900
DGENRE=Country
TTITLE0=Susan Raye - I´ve got a Happy heart
TTITLE1=Roger Miller - Dang me
TTITLE2=Jean Sheppard and Ferlin Huskey - A dear John Letter
TTITLE3=Hank Thompson and Merle Travis - Wildwood Flower
TTITLE4=Johnny Payycheck - Take this Job and Shove it
TTITLE5=Don Fardon - Running Bear
TTITLE6=Johnny Cash - Don't take your Guns to Town
TTITLE7=Don David jr. - Minnesota Bay
TTITLE8=Nina Martin - Summerwine
TTITLE9=Ray Price - Please Release me
TTITLE10=Boby Bare - Sylvia's Mother
TTITLE11=Buck Owens - There goes my Love
TTITLE12=Billy Walker - When a man loves a Woman
TTITLE13=Marty Robbins - Ribbons of Darkness
TTITLE14=Porter Wagoner - Misery Loves Company
TTITLE15=Leroy van Dyke - Walk on By
EXTD=
EXTT0=
EXTT1=
EXTT2=
EXTT3=
EXTT4=
EXTT5=
EXTT6=
EXTT7=
EXTT8=
EXTT9=
EXTT10=
EXTT11=
EXTT12=
EXTT13=
EXTT14=
EXTT15=
PLAYORDER=
